<svg width="12" height="17" viewBox="0 0 12 17" fill="none" xmlns="http://www.w3.org/2000/svg">
<g clip-path="url(#clip0_40_3100)">
<path d="M6.13013 0.5C6.33828 0.574883 6.47358 0.719657 6.59327 0.894384C7.61322 2.38705 8.65919 3.86474 9.65832 5.37239C10.3764 6.4507 11.0269 7.56895 11.5213 8.76708C11.8647 9.60078 12.0885 10.4495 11.9688 11.358C11.7555 12.9755 10.9853 14.2934 9.64791 15.3019C8.76847 15.9658 7.76933 16.3552 6.66092 16.47C5.36517 16.6048 4.14748 16.3602 3.01305 15.7362C1.86821 15.1072 1.01999 14.2136 0.499604 13.0554C-0.0520009 11.8273 -0.182096 10.5743 0.291451 9.28128C0.640107 8.32777 1.09804 7.42917 1.61322 6.55554C2.61756 4.8532 3.7624 3.24072 4.91244 1.62824C5.07376 1.3986 5.23508 1.16895 5.38599 0.934321C5.50567 0.744618 5.65138 0.584867 5.87515 0.5C5.9532 0.5 6.04167 0.5 6.13013 0.5ZM6.00524 2.07754C5.97402 2.11747 5.95841 2.13245 5.948 2.14743C5.08417 3.40546 4.19952 4.6585 3.3565 5.93151C2.70082 6.91997 2.09718 7.93838 1.62883 9.02168C1.28538 9.81544 1.07723 10.6242 1.23855 11.4978C1.42588 12.5062 1.87341 13.3749 2.64878 14.0788C3.51261 14.8675 4.54817 15.2969 5.75025 15.3618C6.69735 15.4117 7.582 15.217 8.4042 14.7677C9.4918 14.1736 10.2151 13.29 10.6002 12.1568C10.8708 11.363 10.9228 10.5593 10.6522 9.74555C10.3816 8.93682 10.0018 8.18299 9.58026 7.44415C8.65398 5.82668 7.57159 4.30406 6.50481 2.77145C6.33828 2.5468 6.17697 2.31716 6.00524 2.07754Z" fill="white"/>
<path d="M10.0537 11.034C9.93404 12.3719 9.28356 13.4053 8.09189 14.1142C7.75364 14.3139 7.41019 14.239 7.21765 13.9395C7.04072 13.6649 7.13439 13.3304 7.46743 13.1407C8.21158 12.7114 8.66431 12.0874 8.84644 11.2786C8.87246 11.1688 8.88287 11.054 8.89848 10.9391C8.94011 10.5647 9.1951 10.3251 9.52294 10.3551C9.81435 10.385 10.1058 10.6147 10.0537 11.034Z" fill="white"/>
</g>
<defs>
<clipPath id="clip0_40_3100">
<rect width="12" height="16" fill="white" transform="translate(0 0.5)"/>
</clipPath>
</defs>
</svg>
