<svg width="15" height="15" viewBox="0 0 15 15" fill="none" xmlns="http://www.w3.org/2000/svg">
<path d="M1 7.5L2.41667 6.08333M2.41667 6.08333L7.375 1.125L12.3333 6.08333M2.41667 6.08333V13.1667C2.41667 13.3545 2.49129 13.5347 2.62413 13.6675C2.75697 13.8004 2.93714 13.875 3.125 13.875H5.25M12.3333 6.08333L13.75 7.5M12.3333 6.08333V13.1667C12.3333 13.3545 12.2587 13.5347 12.1259 13.6675C11.993 13.8004 11.8129 13.875 11.625 13.875H9.5M5.25 13.875C5.43786 13.875 5.61803 13.8004 5.75087 13.6675C5.88371 13.5347 5.95833 13.3545 5.95833 13.1667V10.3333C5.95833 10.1455 6.03296 9.9653 6.1658 9.83247C6.29864 9.69963 6.4788 9.625 6.66667 9.625H8.08333C8.27119 9.625 8.45136 9.69963 8.5842 9.83247C8.71704 9.9653 8.79167 10.1455 8.79167 10.3333V13.1667C8.79167 13.3545 8.86629 13.5347 8.99913 13.6675C9.13197 13.8004 9.31214 13.875 9.5 13.875M5.25 13.875H9.5" stroke="white" stroke-width="1.12" stroke-linecap="round" stroke-linejoin="round"/>
</svg>
