<svg width="41" height="28" viewBox="0 0 41 28" fill="none" xmlns="http://www.w3.org/2000/svg">
<g clip-path="url(#clip0_36_5437)">
<path d="M32.7434 5.13405C32.6219 5.01593 32.3923 4.87157 32.0075 4.87157C30.7247 4.87157 29.0368 4.91094 27.3489 5.19311C25.6611 5.46872 24.4323 5.88212 23.3521 6.53177C22.2921 7.16829 21.6034 7.94917 21.2321 8.92692C20.5974 10.6199 20.6515 12.3654 21.3941 14.0978C21.3941 14.0978 21.3941 14.0978 21.3941 14.1044C20.6717 15.1674 20.0911 16.3224 19.6522 17.556C19.2742 15.7515 18.7475 14.1766 18.0656 12.7723C18.1331 12.6542 18.2074 12.536 18.2884 12.4114C18.4235 12.1948 18.5652 11.9717 18.6733 11.7289C19.1391 10.6724 19.3012 9.50438 19.1594 8.24446C18.9568 6.48583 18.1061 5.15374 16.6276 4.29411C15.6554 3.72977 14.5549 3.34261 13.1708 3.07357C11.3682 2.72578 9.5385 2.66672 7.98566 2.66016H7.97891C7.5198 2.66016 7.17548 2.89639 7.02019 3.32949L6.99994 3.38198V4.95688L7.00669 4.98312C7.01344 5.00937 7.01344 5.04218 7.02019 5.06843C7.02694 5.12093 7.04045 5.17342 7.0472 5.21936C7.08096 5.53434 7.10796 5.85588 7.13497 6.17086C7.19573 6.85987 7.2565 7.56857 7.36452 8.27071C7.58732 9.74717 8.03292 10.9874 8.72157 12.0636C9.35621 13.0545 10.1394 13.7172 11.1251 14.0781C12.5699 14.6162 14.1093 14.6622 15.7026 14.2159C15.9794 14.1372 16.2495 14.0322 16.5128 13.9272C16.5398 13.9206 16.5601 13.9075 16.5871 13.8944C17.2892 15.4562 17.7821 17.1623 18.0926 19.0981C18.3627 20.7911 18.4977 22.576 18.5045 24.5577C18.5045 24.6955 18.518 24.8268 18.5382 24.9515C18.6193 25.3714 18.9771 25.6602 19.4159 25.6602C19.4362 25.6602 19.4564 25.6602 19.4834 25.6602C19.7265 25.647 20.2936 25.5158 20.3409 24.6758C20.3544 24.4134 20.3679 24.1509 20.3881 23.8884C20.4287 23.16 20.4692 22.4054 20.5569 21.677C20.7865 19.7543 21.3334 17.9563 22.1908 16.342C22.3191 16.1058 22.4609 15.863 22.5959 15.6333C22.5959 15.6268 22.6026 15.6202 22.6026 15.6202C22.7917 15.7515 22.9875 15.8893 23.2035 15.9943C24.6281 16.7161 26.2147 16.9129 27.9161 16.5848C29.2191 16.3289 30.2588 15.699 31.0015 14.7015C31.6699 13.8091 32.1357 12.7592 32.4666 11.4074C32.9392 9.47157 33.0067 7.49639 33.0134 5.82307C32.9999 5.46215 32.8582 5.25217 32.7434 5.13405ZM24.1082 14.4522C23.9597 14.38 23.8112 14.275 23.6424 14.1569C23.6761 14.1175 23.7166 14.0781 23.7504 14.0388C23.9934 13.7763 24.2297 13.5269 24.4661 13.2907C25.364 12.4245 26.4307 11.7092 27.7338 11.099C28.3009 10.8299 28.3617 10.4428 28.3144 10.1606C28.2671 9.88498 28.1051 9.64874 27.8688 9.5175C27.6257 9.38626 27.3422 9.36658 27.0586 9.47157C26.694 9.60937 26.3565 9.78655 26.0662 9.94404C24.8036 10.6331 23.6896 11.473 22.7444 12.4507C22.6431 12.0045 22.6026 11.5386 22.6296 11.0399C22.6702 10.2 22.8524 9.55688 23.2103 9.01222C23.6086 8.40852 24.2297 8.04104 24.7361 7.79168C25.6476 7.3389 26.7008 7.04361 27.8553 6.91237C28.679 6.8205 29.5297 6.768 30.3466 6.71551C30.6099 6.70238 30.8732 6.6827 31.1433 6.66301C31.1433 6.873 31.15 7.07642 31.1365 7.27984C31.0555 9.09097 30.8935 10.5871 30.3601 12.0242C30.1913 12.4704 29.9618 12.9298 29.6579 13.4285C29.1718 14.2225 28.4224 14.6884 27.3692 14.8525C26.1337 15.0559 25.0669 14.9181 24.1082 14.4522ZM13.5219 7.64076C13.4476 7.58826 13.3666 7.53576 13.2923 7.4767C13.2113 7.41765 13.1303 7.35859 13.0425 7.30609C12.6307 7.03048 12.1108 7.0961 11.8138 7.45702C11.5099 7.82449 11.5437 8.32977 11.8948 8.65787C12.0501 8.80224 12.2188 8.92036 12.3674 9.01879C13.5219 9.77999 14.3658 10.5149 15.0072 11.3352C15.2233 11.6174 15.4258 11.9061 15.6418 12.2079C15.6689 12.2473 15.6959 12.2867 15.7229 12.3195C15.3988 12.4704 15.0342 12.5689 14.5954 12.641C13.7514 12.7854 12.9075 12.7395 12.0973 12.5229C11.2061 12.2801 10.5377 11.6961 10.0111 10.679C9.54525 9.78655 9.24819 8.8088 9.12666 7.76543C9.02539 6.92549 8.96462 6.07242 8.90386 5.23904C8.88361 4.97 8.86335 4.69439 8.8431 4.42535C8.84985 4.42535 8.8566 4.42535 8.8566 4.42535C10.3622 4.45816 12.1311 4.55659 13.8527 5.03562C14.6359 5.25217 15.2975 5.5409 15.8849 5.92806C16.5938 6.39397 17.0259 7.0108 17.2082 7.81793C17.4715 8.95317 17.3972 9.98997 16.9989 10.9743C16.8706 10.7971 16.7423 10.6199 16.6141 10.4493C15.8579 9.43876 14.8452 8.51351 13.5219 7.64076Z" fill="#00B761"/>
</g>
<defs>
<clipPath id="clip0_36_5437">
<rect width="26" height="23" fill="white" transform="translate(6.99994 2.66016)"/>
</clipPath>
</defs>
</svg>
