<svg width="40" height="28" viewBox="0 0 40 28" fill="none" xmlns="http://www.w3.org/2000/svg">
<path fill-rule="evenodd" clip-rule="evenodd" d="M17.7997 7.55088C16.6328 7.55088 15.5136 8.03552 14.6884 8.89819C13.8633 9.76086 13.3997 10.9309 13.3997 12.1509C13.3997 13.3709 13.8633 14.5409 14.6884 15.4036C15.5136 16.2662 16.6328 16.7509 17.7997 16.7509C18.9667 16.7509 20.0858 16.2662 20.911 15.4036C21.7361 14.5409 22.1997 13.3709 22.1997 12.1509C22.1997 10.9309 21.7361 9.76086 20.911 8.89819C20.0858 8.03552 18.9667 7.55088 17.7997 7.55088ZM11.1997 12.1509C11.1996 11.0649 11.4446 9.9943 11.9149 9.02603C12.3852 8.05777 13.0674 7.21922 13.9061 6.57859C14.7449 5.93795 15.7164 5.51333 16.7417 5.33924C17.767 5.16515 18.8171 5.24652 19.8066 5.57673C20.7962 5.90694 21.6972 6.47667 22.4364 7.23957C23.1756 8.00248 23.7321 8.93701 24.0607 9.96718C24.3893 10.9974 24.4807 12.0941 24.3275 13.1681C24.1742 14.2422 23.7806 15.2632 23.1787 16.1483L28.4774 21.6878C28.6778 21.9047 28.7887 22.1952 28.7861 22.4967C28.7836 22.7983 28.668 23.0867 28.464 23.2999C28.2601 23.5131 27.9842 23.6341 27.6957 23.6367C27.4073 23.6393 27.1295 23.5234 26.922 23.3139L21.6244 17.7755C20.637 18.5096 19.4754 18.9453 18.2668 19.0349C17.0583 19.1246 15.8495 18.8647 14.7728 18.2838C13.6962 17.7029 12.7933 16.8234 12.163 15.7416C11.5327 14.6598 11.1995 13.4175 11.1997 12.1509V12.1509Z" fill="#00B761"/>
</svg>
