<svg width="24" height="23" viewBox="0 0 24 23" fill="none" xmlns="http://www.w3.org/2000/svg">
<path d="M12.105 8.80154V11.5925M12.105 11.5925V14.3834M12.105 11.5925H14.8959M12.105 11.5925H9.31406M20.4777 11.5925C20.4777 12.692 20.2611 13.7807 19.8404 14.7966C19.4196 15.8124 18.8029 16.7354 18.0254 17.5129C17.2479 18.2903 16.3249 18.9071 15.3091 19.3278C14.2932 19.7486 13.2045 19.9652 12.105 19.9652C11.0054 19.9652 9.91669 19.7486 8.90086 19.3278C7.88504 18.9071 6.96203 18.2903 6.18455 17.5129C5.40707 16.7354 4.79034 15.8124 4.36957 14.7966C3.94881 13.7807 3.73224 12.692 3.73224 11.5925C3.73224 9.37187 4.61436 7.24223 6.18455 5.67204C7.75474 4.10185 9.88438 3.21973 12.105 3.21973C14.3256 3.21973 16.4552 4.10185 18.0254 5.67204C19.5956 7.24223 20.4777 9.37187 20.4777 11.5925Z" stroke="#00B761" stroke-width="1.91515" stroke-linecap="round" stroke-linejoin="round"/>
</svg>
