<svg width="21" height="18" viewBox="0 0 21 18" fill="none" xmlns="http://www.w3.org/2000/svg">
<path d="M1.36158 3.89294C1.60029 3.32437 1.95018 2.80776 2.39126 2.3726C2.83234 1.93743 3.35597 1.59224 3.93227 1.35673C4.50857 1.12122 5.12624 1 5.75002 1C6.37381 1 6.99148 1.12122 7.56778 1.35673C8.14408 1.59224 8.66771 1.93743 9.10879 2.3726L10.5 3.74515L11.8912 2.3726C12.782 1.49375 13.9902 1.00001 15.25 1.00001C16.5098 1.00001 17.718 1.49375 18.6088 2.3726C19.4996 3.25145 20 4.44343 20 5.68631C20 6.92919 19.4996 8.12117 18.6088 9.00002L10.5 17L2.39126 9.00002C1.95018 8.56486 1.60029 8.04825 1.36158 7.47968C1.12286 6.91111 1 6.30172 1 5.68631C1 5.07089 1.12286 4.46151 1.36158 3.89294Z" stroke="#00B761" stroke-width="1.91515" stroke-linecap="round" stroke-linejoin="round"/>
</svg>
