<svg width="17" height="17" viewBox="0 0 17 17" fill="none" xmlns="http://www.w3.org/2000/svg">
<path d="M6.37518 13.4583V9.20833C6.37518 8.83261 6.22593 8.47228 5.96025 8.2066C5.69457 7.94092 5.33424 7.79167 4.95852 7.79167H3.54185C3.16613 7.79167 2.80579 7.94092 2.54012 8.2066C2.27444 8.47228 2.12518 8.83261 2.12518 9.20833V13.4583C2.12518 13.8341 2.27444 14.1944 2.54012 14.4601C2.80579 14.7257 3.16613 14.875 3.54185 14.875H4.95852C5.33424 14.875 5.69457 14.7257 5.96025 14.4601C6.22593 14.1944 6.37518 13.8341 6.37518 13.4583ZM6.37518 13.4583V6.375C6.37518 5.99928 6.52444 5.63894 6.79012 5.37327C7.05579 5.10759 7.41613 4.95833 7.79185 4.95833H9.20852C9.58424 4.95833 9.94457 5.10759 10.2103 5.37327C10.4759 5.63894 10.6252 5.99928 10.6252 6.375V13.4583M6.37518 13.4583C6.37518 13.8341 6.52444 14.1944 6.79012 14.4601C7.05579 14.7257 7.41613 14.875 7.79185 14.875H9.20852C9.58424 14.875 9.94457 14.7257 10.2103 14.4601C10.4759 14.1944 10.6252 13.8341 10.6252 13.4583M10.6252 13.4583V3.54167C10.6252 3.16594 10.7744 2.80561 11.0401 2.53993C11.3058 2.27426 11.6661 2.125 12.0418 2.125H13.4585C13.8342 2.125 14.1946 2.27426 14.4603 2.53993C14.7259 2.80561 14.8752 3.16594 14.8752 3.54167V13.4583C14.8752 13.8341 14.7259 14.1944 14.4603 14.4601C14.1946 14.7257 13.8342 14.875 13.4585 14.875H12.0418C11.6661 14.875 11.3058 14.7257 11.0401 14.4601C10.7744 14.1944 10.6252 13.8341 10.6252 13.4583Z" stroke="white" stroke-linecap="round" stroke-linejoin="round"/>
</svg>
