<svg width="17" height="17" viewBox="0 0 17 17" fill="none" xmlns="http://www.w3.org/2000/svg">
<g clip-path="url(#clip0_40_3086)">
<path d="M0 8.36828C0.139387 8.01723 0.407835 7.89849 0.77437 7.90882C1.26997 7.9243 1.77073 7.90882 2.26632 7.91398C2.67416 7.91914 2.93744 8.2134 2.89098 8.5851C2.85484 8.8742 2.61221 9.07553 2.28181 9.08586C2.01336 9.09102 1.73975 9.08586 1.4713 9.08586C1.22867 9.08586 0.986031 9.07553 0.743395 9.08586C0.387185 9.10135 0.134224 8.97228 0.00516247 8.63156C0 8.5438 0 8.45604 0 8.36828Z" fill="white"/>
<path d="M8.36834 16.9993C8.01729 16.8599 7.89855 16.5915 7.90888 16.2249C7.92436 15.7448 7.90888 15.2647 7.9192 14.7846C7.92436 14.6504 7.95018 14.5058 8.01213 14.3871C8.12054 14.1703 8.37866 14.067 8.61613 14.1135C8.84328 14.16 9.03429 14.351 9.07043 14.5833C9.08076 14.6607 9.08592 14.7382 9.08592 14.8156C9.08592 15.2854 9.0756 15.7552 9.09108 16.2249C9.10141 16.5915 8.98267 16.8548 8.63162 16.9993C8.54386 16.9993 8.4561 16.9993 8.36834 16.9993Z" fill="white"/>
<path d="M12.7771 8.49727C12.7719 10.8307 10.8412 12.777 8.50774 12.7666C6.12784 12.7563 4.23322 10.841 4.23322 8.48695C4.23322 6.13802 6.18979 4.20726 8.50774 4.22275C10.8515 4.2434 12.7823 6.17416 12.7771 8.49727ZM11.6001 8.49211C11.5897 6.75236 10.2372 5.39979 8.50257 5.39979C6.76799 5.39463 5.38961 6.77301 5.39993 8.5076C5.41026 10.2473 6.76282 11.5999 8.49741 11.5999C10.2372 11.5999 11.6104 10.2267 11.6001 8.49211Z" fill="white"/>
<path d="M7.92439 1.42963C7.92439 1.12505 7.9089 0.820461 7.92955 0.521038C7.94504 0.25259 8.16186 0.0512535 8.41999 0.00995382C8.66262 -0.0313459 8.92074 0.113203 9.02916 0.345514C9.04981 0.397139 9.07562 0.448763 9.07562 0.505551C9.08078 1.13537 9.09111 1.76519 9.07562 2.39501C9.07046 2.66346 8.83814 2.8648 8.58002 2.89577C8.30641 2.92675 8.05861 2.7822 7.96569 2.51891C7.93471 2.42599 7.92439 2.32274 7.91923 2.22465C7.91406 1.96137 7.91923 1.69292 7.91923 1.42963H7.92439Z" fill="white"/>
<path d="M15.5597 9.08531C15.2706 9.08531 14.9867 9.09047 14.6976 9.08531C14.4446 9.08014 14.2536 8.95624 14.1503 8.71877C14.0574 8.50195 14.0987 8.29545 14.2536 8.11476C14.3775 7.97021 14.5427 7.91343 14.7234 7.91343C15.2758 7.91343 15.8281 7.90826 16.3805 7.91343C16.7367 7.91859 16.9949 8.17155 17 8.49679C17 8.82202 16.7419 9.06982 16.3857 9.08531C16.1121 9.09047 15.8333 9.08531 15.5597 9.08531Z" fill="white"/>
<path d="M14.6821 14.0156C14.6614 14.3357 14.553 14.5163 14.331 14.6144C14.0987 14.7177 13.8819 14.6712 13.7064 14.5009C13.4276 14.2324 13.1591 13.9588 12.8855 13.6852C12.7461 13.551 12.6068 13.4167 12.4777 13.2722C12.2402 13.0192 12.2402 12.6837 12.4674 12.4565C12.6997 12.2242 13.0456 12.2242 13.2934 12.472C13.6909 12.8644 14.0884 13.2567 14.4756 13.6594C14.5737 13.773 14.6356 13.933 14.6821 14.0156Z" fill="white"/>
<path d="M4.68236 4.22779C4.6772 4.37234 4.57395 4.5427 4.36745 4.64595C4.16096 4.7492 3.95446 4.73371 3.77377 4.58916C3.6602 4.5014 3.56211 4.39299 3.45886 4.2949C3.14395 3.97483 2.81872 3.65476 2.5038 3.32952C2.25601 3.0714 2.24568 2.73068 2.47283 2.49837C2.7103 2.25573 3.05103 2.26605 3.31431 2.52418C3.70666 2.91136 4.09901 3.30887 4.49135 3.69606C4.61009 3.81996 4.68753 3.96451 4.68236 4.22779Z" fill="white"/>
<path d="M12.3125 4.05691C12.3486 3.9898 12.3951 3.83493 12.488 3.73684C12.8907 3.31868 13.3037 2.90568 13.7167 2.50301C13.9542 2.2707 14.2949 2.2707 14.522 2.49785C14.744 2.71983 14.7595 3.06572 14.5272 3.30319C14.1194 3.72651 13.7012 4.13951 13.283 4.54735C13.1075 4.72287 12.8855 4.76933 12.6532 4.66608C12.4364 4.55767 12.3228 4.37698 12.3125 4.05691Z" fill="white"/>
<path d="M4.69268 12.9316C4.65654 13.0039 4.61008 13.1587 4.51716 13.2568C4.11448 13.6802 3.69632 14.0931 3.273 14.501C3.04069 14.7281 2.70513 14.723 2.48314 14.5061C2.26116 14.2945 2.24051 13.9434 2.46249 13.7163C2.88065 13.2826 3.30914 12.8542 3.74279 12.436C3.91831 12.2708 4.13513 12.2347 4.35712 12.3431C4.56878 12.4412 4.67203 12.6218 4.69268 12.9316Z" fill="white"/>
</g>
<defs>
<clipPath id="clip0_40_3086">
<rect width="17" height="17" fill="white"/>
</clipPath>
</defs>
</svg>
