<svg width="20" height="20" viewBox="0 0 20 20" fill="none" xmlns="http://www.w3.org/2000/svg">
<path d="M14.1656 16.6667L11.0323 17.45C10.9001 17.4831 10.7644 17.4999 10.6281 17.5H7.27981C6.97023 17.5 6.66678 17.4138 6.40346 17.251C6.14013 17.0882 5.92736 16.8553 5.78898 16.5783L2.87231 10.745C2.74534 10.4909 2.68541 10.2086 2.69823 9.9248C2.71105 9.64104 2.79618 9.36525 2.94554 9.12364C3.0949 8.88202 3.30354 8.68259 3.55164 8.54427C3.79975 8.40595 4.07909 8.33334 4.36314 8.33333H8.33314H9.99981M14.1656 16.6667L14.1665 9.16667L11.3398 4.92667C11.009 4.43083 10.8331 3.84917 10.8331 3.25333C10.8331 2.8375 10.4956 2.5 10.079 2.5H9.99898C9.55695 2.5 9.13303 2.6756 8.82047 2.98816C8.50791 3.30072 8.33231 3.72464 8.33231 4.16667V8.33333M14.1656 16.6667H15.8331C16.2752 16.6667 16.6991 16.4911 17.0117 16.1785C17.3242 15.866 17.4998 15.442 17.4998 15V10C17.4998 9.55797 17.3242 9.13405 17.0117 8.82149C16.6991 8.50893 16.2752 8.33333 15.8331 8.33333H13.7498" stroke="#00B761" stroke-width="1.91515" stroke-linecap="round" stroke-linejoin="round"/>
</svg>
