<svg width="29" height="29" viewBox="0 0 29 29" fill="none" xmlns="http://www.w3.org/2000/svg">
<path d="M10.6226 14.1633L12.9832 16.5239L17.7044 11.8026M24.7862 14.1633C24.7862 15.5583 24.5115 16.9396 23.9776 18.2284C23.4438 19.5172 22.6613 20.6882 21.6749 21.6747C20.6885 22.6611 19.5175 23.4435 18.2286 23.9774C16.9398 24.5112 15.5585 24.786 14.1635 24.786C12.7685 24.786 11.3872 24.5112 10.0984 23.9774C8.80955 23.4435 7.63851 22.6611 6.6521 21.6747C5.66568 20.6882 4.88322 19.5172 4.34938 18.2284C3.81554 16.9396 3.54077 15.5583 3.54077 14.1633C3.54077 11.3459 4.65995 8.644 6.6521 6.65185C8.64424 4.6597 11.3462 3.54053 14.1635 3.54053C16.9808 3.54053 19.6828 4.6597 21.6749 6.65185C23.667 8.644 24.7862 11.3459 24.7862 14.1633Z" stroke="white" stroke-width="1.91515" stroke-linecap="round" stroke-linejoin="round"/>
</svg>
