<svg width="41" height="28" viewBox="0 0 41 28" fill="none" xmlns="http://www.w3.org/2000/svg">
<path d="M17.1249 6.57617H14.8749C14.2781 6.57617 13.7058 6.81322 13.2839 7.23518C12.8619 7.65714 12.6249 8.22943 12.6249 8.82617V22.3262C12.6249 22.9229 12.8619 23.4952 13.2839 23.9172C13.7058 24.3391 14.2781 24.5762 14.8749 24.5762H26.1249C26.7216 24.5762 27.2939 24.3391 27.7159 23.9172C28.1378 23.4952 28.3749 22.9229 28.3749 22.3262V8.82617C28.3749 8.22943 28.1378 7.65714 27.7159 7.23518C27.2939 6.81322 26.7216 6.57617 26.1249 6.57617H23.8749M17.1249 6.57617C17.1249 7.17291 17.3619 7.74521 17.7839 8.16716C18.2058 8.58912 18.7781 8.82617 19.3749 8.82617H21.6249C22.2216 8.82617 22.7939 8.58912 23.2159 8.16716C23.6378 7.74521 23.8749 7.17291 23.8749 6.57617M17.1249 6.57617C17.1249 5.97943 17.3619 5.40714 17.7839 4.98518C18.2058 4.56322 18.7781 4.32617 19.3749 4.32617H21.6249C22.2216 4.32617 22.7939 4.56322 23.2159 4.98518C23.6378 5.40714 23.8749 5.97943 23.8749 6.57617M20.4999 14.4512H23.8749M20.4999 18.9512H23.8749M17.1249 14.4512H17.1361M17.1249 18.9512H17.1361" stroke="#00B761" stroke-width="1.91515" stroke-linecap="round" stroke-linejoin="round"/>
</svg>
