<svg width="40" height="28" viewBox="0 0 40 28" fill="none" xmlns="http://www.w3.org/2000/svg">
<path d="M21.1096 4.14721C20.7608 3.11109 19.2406 3.11109 18.8906 4.14721L17.1184 9.40546C17.0421 9.63119 16.8937 9.82785 16.6944 9.96728C16.4951 10.1067 16.2552 10.1818 16.0089 10.1817H10.2759C9.14661 10.1817 8.67528 11.5767 9.58994 12.218L14.2286 15.467C14.4279 15.6066 14.5762 15.8036 14.6522 16.0295C14.7283 16.2554 14.7283 16.4988 14.6521 16.7247L12.8811 21.983C12.5311 23.0191 13.7619 23.882 14.6754 23.2407L19.3141 19.9917C19.5135 19.852 19.7536 19.7767 20.0001 19.7767C20.2466 19.7767 20.4867 19.852 20.6861 19.9917L25.3248 23.2407C26.2383 23.882 27.4691 23.0202 27.1191 21.983L25.3481 16.7247C25.272 16.4988 25.2719 16.2554 25.348 16.0295C25.4241 15.8036 25.5724 15.6066 25.7716 15.467L30.4103 12.218C31.3238 11.5767 30.8548 10.1817 29.7243 10.1817H23.9901C23.7441 10.1815 23.5044 10.1064 23.3054 9.96695C23.1063 9.82754 22.958 9.63101 22.8818 9.40546L21.1096 4.14721Z" stroke="#00B761" stroke-width="1.91515" stroke-linecap="round" stroke-linejoin="round"/>
</svg>
